<svg width="260" height="22" viewBox="0 0 260 22" fill="none" xmlns="http://www.w3.org/2000/svg">
<path d="M39.912 8.82C38.454 8.82 37.338 9.27 36.762 9.99H36.69V5.04H34.026V15.156C34.026 16.344 33.936 17.406 33.738 17.802V18H36.33C36.42 17.676 36.51 17.262 36.582 16.74H36.654C37.284 17.622 38.418 18.162 39.948 18.162C42.954 18.162 44.862 16.434 44.862 13.5C44.862 10.548 42.954 8.82 39.912 8.82ZM39.408 16.074C37.77 16.074 36.69 15.12 36.69 13.5C36.69 11.862 37.77 10.908 39.408 10.908C41.082 10.908 42.144 11.862 42.144 13.5C42.144 15.12 41.082 16.074 39.408 16.074ZM56.3859 15.156V12.528C56.3859 9.594 53.7219 8.82 51.2739 8.82C49.0779 8.82 46.6299 9.666 46.3599 11.88H49.0779C49.2759 11.142 50.3559 10.836 51.3279 10.836C52.4619 10.836 53.8299 11.268 53.8299 12.528V12.744C52.8399 12.618 52.0479 12.528 51.0219 12.528C47.7639 12.528 46.4679 13.698 46.4679 15.426C46.4679 17.334 48.1059 18.18 50.2119 18.18C51.9759 18.18 53.2179 17.658 53.8839 16.884H53.9559C54.0279 17.334 54.1179 17.712 54.1899 18H56.6739V17.802C56.4939 17.406 56.3859 16.344 56.3859 15.156ZM50.6799 16.182C49.8339 16.182 49.0959 16.056 49.0959 15.336C49.0959 14.706 49.6179 14.4 50.6619 14.4H53.8299C53.7399 15.84 52.0119 16.182 50.6799 16.182ZM63.0663 13.176L68.2683 9H64.7223L61.1943 11.862H61.1223V5.04H58.5123V18H61.1223V14.796H61.1943L64.9383 18H68.5563L63.0663 13.176ZM74.2109 13.176L79.4129 9H75.8669L72.3389 11.862H72.2669V5.04H69.6569V18H72.2669V14.796H72.3389L76.0829 18H79.7009L74.2109 13.176ZM83.4834 18V5.04H80.8014V18H83.4834ZM95.2863 15.156V12.528C95.2863 9.594 92.6223 8.82 90.1743 8.82C87.9783 8.82 85.5303 9.666 85.2603 11.88H87.9783C88.1763 11.142 89.2563 10.836 90.2283 10.836C91.3623 10.836 92.7303 11.268 92.7303 12.528V12.744C91.7403 12.618 90.9483 12.528 89.9223 12.528C86.6643 12.528 85.3683 13.698 85.3683 15.426C85.3683 17.334 87.0063 18.18 89.1123 18.18C90.8763 18.18 92.1183 17.658 92.7843 16.884H92.8563C92.9283 17.334 93.0183 17.712 93.0903 18H95.5743V17.802C95.3943 17.406 95.2863 16.344 95.2863 15.156ZM89.5803 16.182C88.7343 16.182 87.9963 16.056 87.9963 15.336C87.9963 14.706 88.5183 14.4 89.5623 14.4H92.7303C92.6403 15.84 90.9123 16.182 89.5803 16.182ZM103.425 8.82C101.247 8.82 100.401 9.774 100.077 10.242H100.005L100.095 9.198V9H97.3951V18H100.095V13.788C100.095 11.826 101.337 10.782 102.903 10.782C104.487 10.782 105.171 11.664 105.171 13.518V18H107.853V12.834C107.853 9.846 105.945 8.82 103.425 8.82ZM120.424 15.156V5.04H117.76V9.99H117.688C117.112 9.27 115.996 8.82 114.538 8.82C111.496 8.82 109.588 10.548 109.588 13.5C109.588 16.434 111.496 18.162 114.502 18.162C116.032 18.162 117.166 17.622 117.796 16.74H117.868C117.94 17.262 118.03 17.676 118.12 18H120.712V17.802C120.514 17.406 120.424 16.344 120.424 15.156ZM115.042 16.074C113.368 16.074 112.306 15.12 112.306 13.5C112.306 11.862 113.368 10.908 115.042 10.908C116.68 10.908 117.76 11.862 117.76 13.5C117.76 15.12 116.68 16.074 115.042 16.074ZM128.021 16.11C126.599 16.11 125.285 15.552 124.943 14.238H133.133C133.223 14.004 133.277 13.644 133.277 13.284C133.277 10.476 130.883 8.82 127.841 8.82C124.619 8.82 122.315 10.674 122.315 13.554C122.315 16.398 124.691 18.162 128.039 18.162C130.469 18.162 132.989 17.262 133.277 15.03H130.595C130.271 15.876 129.101 16.11 128.021 16.11ZM127.841 10.764C129.263 10.764 130.271 11.394 130.541 12.474H125.015C125.375 11.412 126.365 10.764 127.841 10.764ZM138.938 15.012V10.962H141.764V9H138.938V5.76L136.238 6.12V9H134.24V10.962H136.238V15.174C136.238 17.028 137.408 18.126 139.334 18.09C139.442 18.09 139.586 18.09 139.82 18.072L141.602 17.928V15.912L140.414 15.984C140.234 16.002 140.072 16.002 140.018 16.002C139.244 16.02 138.938 15.606 138.938 15.012ZM158.516 15.156V5.04H155.852V9.99H155.78C155.204 9.27 154.088 8.82 152.63 8.82C149.588 8.82 147.68 10.548 147.68 13.5C147.68 16.434 149.588 18.162 152.594 18.162C154.124 18.162 155.258 17.622 155.888 16.74H155.96C156.032 17.262 156.122 17.676 156.212 18H158.804V17.802C158.606 17.406 158.516 16.344 158.516 15.156ZM153.134 16.074C151.46 16.074 150.398 15.12 150.398 13.5C150.398 11.862 151.46 10.908 153.134 10.908C154.772 10.908 155.852 11.862 155.852 13.5C155.852 15.12 154.772 16.074 153.134 16.074ZM166.113 16.11C164.691 16.11 163.377 15.552 163.035 14.238H171.225C171.315 14.004 171.369 13.644 171.369 13.284C171.369 10.476 168.975 8.82 165.933 8.82C162.711 8.82 160.407 10.674 160.407 13.554C160.407 16.398 162.783 18.162 166.131 18.162C168.561 18.162 171.081 17.262 171.369 15.03H168.687C168.363 15.876 167.193 16.11 166.113 16.11ZM165.933 10.764C167.355 10.764 168.363 11.394 168.633 12.474H163.107C163.467 11.412 164.457 10.764 165.933 10.764ZM175.962 18V5.04H173.28V18H175.962ZM177.934 7.56H180.976V5.04H177.934V7.56ZM180.778 18V9H178.096V18H180.778ZM187.467 13.176L192.669 9H189.123L185.595 11.862H185.523V5.04H182.913V18H185.523V14.796H185.595L189.339 18H192.957L187.467 13.176ZM203.515 15.156V12.528C203.515 9.594 200.851 8.82 198.403 8.82C196.207 8.82 193.759 9.666 193.489 11.88H196.207C196.405 11.142 197.485 10.836 198.457 10.836C199.591 10.836 200.959 11.268 200.959 12.528V12.744C199.969 12.618 199.177 12.528 198.151 12.528C194.893 12.528 193.597 13.698 193.597 15.426C193.597 17.334 195.235 18.18 197.341 18.18C199.105 18.18 200.347 17.658 201.013 16.884H201.085C201.157 17.334 201.247 17.712 201.319 18H203.803V17.802C203.623 17.406 203.515 16.344 203.515 15.156ZM197.809 16.182C196.963 16.182 196.225 16.056 196.225 15.336C196.225 14.706 196.747 14.4 197.791 14.4H200.959C200.869 15.84 199.141 16.182 197.809 16.182ZM209.356 15.012V10.962H212.182V9H209.356V5.76L206.656 6.12V9H204.658V10.962H206.656V15.174C206.656 17.028 207.826 18.126 209.752 18.09C209.86 18.09 210.004 18.09 210.238 18.072L212.02 17.928V15.912L210.832 15.984C210.652 16.002 210.49 16.002 210.436 16.002C209.662 16.02 209.356 15.606 209.356 15.012ZM219.146 16.11C217.724 16.11 216.41 15.552 216.068 14.238H224.258C224.348 14.004 224.402 13.644 224.402 13.284C224.402 10.476 222.008 8.82 218.966 8.82C215.744 8.82 213.44 10.674 213.44 13.554C213.44 16.398 215.816 18.162 219.164 18.162C221.594 18.162 224.114 17.262 224.402 15.03H221.72C221.396 15.876 220.226 16.11 219.146 16.11ZM218.966 10.764C220.388 10.764 221.396 11.394 221.666 12.474H216.14C216.5 11.412 217.49 10.764 218.966 10.764ZM232.676 11.88H235.268C235.07 9.792 233.054 8.82 230.552 8.82C228.356 8.82 226.034 9.612 226.034 11.664C226.034 13.41 227.618 14.184 230.498 14.454C232.028 14.598 232.694 14.796 232.694 15.426C232.694 16.092 231.524 16.236 230.696 16.236C229.778 16.236 228.446 16.092 228.284 15.03H225.71C225.89 17.298 228.122 18.18 230.552 18.18C232.91 18.18 235.268 17.514 235.268 15.372C235.268 13.77 234.188 12.798 231.164 12.528C229.292 12.384 228.626 12.222 228.626 11.574C228.626 10.944 229.76 10.764 230.516 10.764C231.398 10.764 232.478 11.016 232.676 11.88ZM243.398 11.88H245.99C245.792 9.792 243.776 8.82 241.274 8.82C239.078 8.82 236.756 9.612 236.756 11.664C236.756 13.41 238.34 14.184 241.22 14.454C242.75 14.598 243.416 14.796 243.416 15.426C243.416 16.092 242.246 16.236 241.418 16.236C240.5 16.236 239.168 16.092 239.006 15.03H236.432C236.612 17.298 238.844 18.18 241.274 18.18C243.632 18.18 245.99 17.514 245.99 15.372C245.99 13.77 244.91 12.798 241.886 12.528C240.014 12.384 239.348 12.222 239.348 11.574C239.348 10.944 240.482 10.764 241.238 10.764C242.12 10.764 243.2 11.016 243.398 11.88ZM253.107 16.11C251.685 16.11 250.371 15.552 250.029 14.238H258.219C258.309 14.004 258.363 13.644 258.363 13.284C258.363 10.476 255.969 8.82 252.927 8.82C249.705 8.82 247.401 10.674 247.401 13.554C247.401 16.398 249.777 18.162 253.125 18.162C255.555 18.162 258.075 17.262 258.363 15.03H255.681C255.357 15.876 254.187 16.11 253.107 16.11ZM252.927 10.764C254.349 10.764 255.357 11.394 255.627 12.474H250.101C250.461 11.412 251.451 10.764 252.927 10.764Z" fill="#072F19"/>
<g clip-path="url(#clip0_32:2)">
<path d="M11.8542 14.8499C11.8542 14.8499 11.8916 22.0045 8.31146 22.0045C8.31146 22.0045 6.24432 22.0361 6.35951 18.9378C6.4747 15.8774 10.8767 16.5919 10.8767 13.7592C10.8767 12.4819 8.45155 14.1228 6.35951 16.3833C3.88144 19.0579 1.79251 19.8262 0.643754 17.5689C-0.473869 15.3716 -0.0971774 12.7032 1.44384 11.7358C3.0689 10.7146 4.10558 12.1626 5.12981 13.2375C6.55875 14.7424 10.251 12.2574 10.2665 11.7864C10.2665 11.7864 0.562812 11.6757 2.83853 7.07881C3.53276 5.67824 4.87765 4.28083 5.97037 7.15152C6.76733 9.24447 8.2492 10.4743 9.79643 10.3036C10.4346 10.2309 10.9172 9.94318 10.9172 9.23183C10.9172 5.14394 5.09246 8.88089 6.3346 3.22803C7.00393 0.189777 11.8573 3.09841 11.8573 8.71966C11.8573 14.3409 11.8542 14.8499 11.8542 14.8499Z" fill="#072F19"/>
<path d="M11.1451 9.15458C11.1451 9.15458 11.1078 1.99998 14.6879 1.99998C14.6879 1.99998 16.755 1.96837 16.6398 5.06669C16.5246 8.12708 12.1226 7.41257 12.1226 10.2453C12.1226 11.5226 14.5478 9.88174 16.6398 7.62123C19.1179 4.94655 21.2068 4.17829 22.3556 6.43564C23.4732 8.63293 23.0965 11.3013 21.5555 12.2687C19.9304 13.2899 18.8938 11.8419 17.8695 10.767C16.4406 9.26208 12.7484 11.7471 12.7328 12.2181C12.7328 12.2181 22.4365 12.3288 20.1608 16.9257C19.4666 18.3263 18.1217 19.7237 17.029 16.853C16.232 14.76 14.7501 13.5302 13.2029 13.7009C12.5647 13.7736 12.0822 14.0613 12.0822 14.7727C12.0822 18.8606 17.9069 15.1236 16.6647 20.7765C15.9954 23.8147 11.1451 20.9061 11.1451 15.2848C11.1451 9.66359 11.1451 9.15458 11.1451 9.15458Z" fill="#072F19"/>
</g>
<defs>
<clipPath id="clip0_32:2">
<rect width="23" height="20" fill="white" transform="translate(0 2)"/>
</clipPath>
</defs>
</svg>
