<svg width="23" height="20" viewBox="0 0 23 20" fill="none" xmlns="http://www.w3.org/2000/svg">
<path d="M11.8542 12.8499C11.8542 12.8499 11.8916 20.0045 8.31146 20.0045C8.31146 20.0045 6.24432 20.0361 6.35951 16.9378C6.4747 13.8774 10.8767 14.5919 10.8767 11.7592C10.8767 10.4819 8.45155 12.1228 6.35951 14.3833C3.88144 17.0579 1.79251 17.8262 0.643754 15.5689C-0.473869 13.3716 -0.0971774 10.7032 1.44384 9.73578C3.0689 8.7146 4.10558 10.1626 5.12981 11.2375C6.55875 12.7424 10.251 10.2574 10.2665 9.78637C10.2665 9.78637 0.562812 9.67571 2.83853 5.07881C3.53276 3.67824 4.87765 2.28083 5.97037 5.15152C6.76733 7.24447 8.2492 8.47432 9.79644 8.3036C10.4346 8.23088 10.9172 7.94318 10.9172 7.23183C10.9172 3.14394 5.09246 6.88089 6.3346 1.22803C7.00393 -1.81022 11.8573 1.09841 11.8573 6.71966C11.8573 12.3409 11.8542 12.8499 11.8542 12.8499Z" fill="#072F19"/>
<path d="M11.1451 7.15458C11.1451 7.15458 11.1077 -1.78712e-05 14.6879 -1.78712e-05C14.6879 -1.78712e-05 16.755 -0.0316335 16.6398 3.06669C16.5246 6.12708 12.1226 5.41257 12.1226 8.24532C12.1226 9.52259 14.5478 7.88174 16.6398 5.62123C19.1179 2.94655 21.2068 2.17829 22.3556 4.43565C23.4732 6.63293 23.0965 9.30128 21.5555 10.2687C19.9304 11.2899 18.8937 9.84191 17.8695 8.76698C16.4406 7.26208 12.7484 9.74706 12.7328 10.2181C12.7328 10.2181 22.4365 10.3288 20.1608 14.9257C19.4666 16.3263 18.1217 17.7237 17.029 14.853C16.232 12.76 14.7501 11.5302 13.2029 11.7009C12.5647 11.7736 12.0822 12.0613 12.0822 12.7727C12.0822 16.8606 17.9069 13.1236 16.6647 18.7765C15.9954 21.8147 11.1451 18.9061 11.1451 13.2848C11.1451 7.66359 11.1451 7.15458 11.1451 7.15458Z" fill="#072F19"/>
</svg>
