<svg width="18" height="18" viewBox="0 0 18 18" fill="none" xmlns="http://www.w3.org/2000/svg">
<path d="M15.0851 4.40894L14.2659 8.91431C14.1983 9.28699 14.002 9.6241 13.7112 9.86679C13.4204 10.1095 13.0536 10.2423 12.6748 10.2422H4.86041L5.15446 11.8594H12.3984C12.742 11.8592 13.0766 11.9684 13.3539 12.1711C13.6313 12.3738 13.8369 12.6595 13.941 12.9868C14.0452 13.3142 14.0424 13.6662 13.9332 13.9919C13.824 14.3175 13.6139 14.6 13.3335 14.7983C13.053 14.9967 12.7167 15.1006 12.3732 15.0951C12.0297 15.0896 11.6969 14.9749 11.423 14.7676C11.1491 14.5604 10.9482 14.2713 10.8495 13.9423C10.7508 13.6132 10.7594 13.2613 10.874 12.9375H6.91509C7.01008 13.2052 7.03291 13.4931 6.98128 13.7724C6.92966 14.0517 6.8054 14.3125 6.62101 14.5285C6.43662 14.7445 6.1986 14.9082 5.93088 15.003C5.66317 15.0978 5.3752 15.1205 5.09594 15.0687C4.81669 15.0169 4.55599 14.8925 4.34007 14.708C4.12416 14.5235 3.96064 14.2854 3.86595 14.0176C3.77127 13.7498 3.74877 13.4619 3.80071 13.1826C3.85265 12.9034 3.97721 12.6428 4.16184 12.427L2.29444 2.15625H1.07812C0.935157 2.15625 0.798044 2.09946 0.69695 1.99836C0.595856 1.89727 0.539063 1.76016 0.539062 1.61719C0.539062 1.47422 0.595856 1.33711 0.69695 1.23601C0.798044 1.13492 0.935157 1.07813 1.07812 1.07813H2.29444C2.54696 1.07801 2.7915 1.16659 2.98537 1.32839C3.17924 1.49019 3.31013 1.71495 3.35519 1.96341L3.68427 3.77344H14.5547C14.6336 3.77345 14.7116 3.7908 14.7831 3.82426C14.8547 3.85773 14.9179 3.9065 14.9685 3.96711C15.0191 4.02773 15.0558 4.09872 15.0759 4.17507C15.0961 4.25141 15.0992 4.33125 15.0851 4.40894Z" fill="#072F19"/>
</svg>
