<svg width="14" height="14" viewBox="0 0 14 14" fill="none" xmlns="http://www.w3.org/2000/svg">
<path d="M12.243 3.57827L11.5781 7.2348C11.5232 7.53727 11.3639 7.81086 11.1279 8.00783C10.8919 8.2048 10.5942 8.31263 10.2868 8.3125H3.94468L4.18333 9.625H10.0625C10.3413 9.62487 10.6129 9.71347 10.838 9.87798C11.0631 10.0425 11.2299 10.2744 11.3145 10.54C11.399 10.8057 11.3968 11.0914 11.3081 11.3557C11.2195 11.62 11.049 11.8493 10.8214 12.0103C10.5937 12.1712 10.3208 12.2556 10.042 12.2511C9.76326 12.2466 9.49317 12.1535 9.27084 11.9853C9.04851 11.8171 8.88549 11.5825 8.80538 11.3155C8.72527 11.0484 8.73223 10.7628 8.82525 10.5H5.61225C5.68934 10.7172 5.70787 10.9509 5.66597 11.1776C5.62407 11.4043 5.52323 11.6159 5.37358 11.7912C5.22392 11.9665 5.03075 12.0994 4.81347 12.1763C4.59619 12.2533 4.36248 12.2717 4.13584 12.2297C3.9092 12.1876 3.69762 12.0867 3.52238 11.9369C3.34714 11.7872 3.21443 11.5939 3.13759 11.3766C3.06074 11.1593 3.04248 10.9256 3.08464 10.6989C3.12679 10.4723 3.22788 10.2608 3.37773 10.0857L1.86215 1.75H0.875C0.758968 1.75 0.647688 1.70391 0.565641 1.62186C0.483594 1.53981 0.4375 1.42853 0.4375 1.3125C0.4375 1.19647 0.483594 1.08519 0.565641 1.00314C0.647688 0.921094 0.758968 0.875 0.875 0.875H1.86215C2.0671 0.874909 2.26556 0.946797 2.42291 1.07812C2.58025 1.20943 2.68648 1.39184 2.72305 1.59349L2.99014 3.0625H11.8125C11.8766 3.06251 11.9399 3.07659 11.9979 3.10375C12.056 3.13091 12.1073 3.17049 12.1484 3.21969C12.1894 3.26888 12.2192 3.3265 12.2355 3.38846C12.2519 3.45042 12.2544 3.51522 12.243 3.57827V3.57827Z" fill="#072F19"/>
</svg>
