<svg width="733" height="733" viewBox="0 0 733 733" fill="none" xmlns="http://www.w3.org/2000/svg">
<path d="M442 353.7C424.9 352.4 407.7 352.7 391 353C385.9 353.1 380.6 353.2 375.3 353.2C371.5 344.3 367.6 335.4 363.8 326.5C357.4 311.7 350.8 296.4 344.4 281.3C327.9 242 337.1 198.3 367.8 169.1C391.2 190.1 403 215.2 403.7 245.7C404 255.7 410 261.7 419.9 261.7H420C458.5 261.6 499.5 261.6 548.9 261.7C550.8 261.7 556.6 261.7 560.9 257.2C563.7 254.2 565.1 250.2 564.9 245.2C564.1 225.8 560.1 208.7 552.7 192.9C536.3 157.8 505.6 131.6 468.4 121.2C433.5 111.4 396.9 116.5 367.2 135.2C353.4 127 338.5 121.5 323.1 118.7C287.8 112.3 252.2 120.2 222.9 141.1C193.8 161.9 174.7 192.7 169.3 227.8C163.4 266 174.4 304.6 199.4 333.8C224.4 363 260.9 379.8 299.6 379.8H309.4C325.1 379.8 341.3 379.9 357.3 379.7C366.8 402.1 376.9 425.2 388 450.6C396.5 470.1 398.6 491.5 393.9 512.5C389.5 532.3 379.5 550 364.9 563.8C341.9 543.3 330 518.2 328.7 487.2C328.3 477 322.3 471.2 312.3 471.2C312.2 471.2 312.1 471.2 312 471.2C296.5 471.4 280.7 471.4 265.5 471.3C263.4 471.3 261.3 471.3 259.2 471.3H248.7C243.1 471.3 237.5 471.3 231.9 471.3C216.3 471.3 200.2 471.3 184.3 471.2C184.2 471.2 184.2 471.2 184.1 471.2C178.6 471.2 174.3 472.9 171.4 476.2C169.4 478.5 167.2 482.5 168.1 488.9C168.5 491.7 168.8 494.5 169.1 497.5C169.8 504.5 170.5 511.8 172.7 519C180.6 545.1 193.4 566.4 210.8 582.3C228.4 598.4 250.9 609.2 277.6 614.2C309 620.1 338.5 614.4 365.4 597.2C387.2 610.1 409.7 616.6 432.6 616.6C447.6 616.6 462.8 613.8 478.2 608.3C512.2 596.1 539 571.1 553.7 538.1C568.3 505.3 568.8 469 555.2 435.9C534.8 386 495.6 357.6 442 353.7ZM454.2 145.9C496.4 155.4 522.7 180.8 534.8 223.4C535.8 226.9 536.3 230.8 536.9 234.9C524.5 234.8 512 234.8 499.9 234.8C494.6 234.8 489.3 234.8 484.1 234.8C478.9 234.8 473.6 234.8 468.4 234.8C455.9 234.8 443.1 234.8 430.3 234.9C426.7 202.7 413.4 175.4 390.6 153.4C410.7 143.4 432 140.9 454.2 145.9ZM341.7 353.2C328.9 353.2 315.6 353.3 302.6 353.1C280.6 352.8 261.4 347.8 245.6 338.3C229.5 328.7 216.3 314.2 206.4 295.1C193.6 270.5 191.4 242.3 200.2 215.6C209.1 188.7 227.8 167.1 253 154.7C268.4 147.2 284 143.4 299.5 143.4C314.6 143.4 329.8 147 344.9 154.1C341.2 158 337.6 162.2 334.4 166.7C306.5 206.4 301.8 249.2 320.5 293.8C326.7 308.7 333.3 323.7 339.7 338.2C341.9 343.2 344 348.1 346.2 353.1C344.6 353.1 343.1 353.2 341.7 353.2ZM266.6 583.9C238.8 574.7 216.3 554.6 204.8 528.7C200.4 518.8 197.5 508.8 195.9 498.1C204.2 498.1 212.5 498.1 220.8 498.1C247.6 498.1 275.4 498.1 302.7 498C305.9 529.8 319.2 557.2 342.3 579.4C319.2 590.6 292 592.3 266.6 583.9ZM527.5 530.5C514.1 557.9 489.3 578.1 459.3 586C434.8 592.4 410.9 590.1 388 578.9C396.7 569.9 403.6 560.2 409 549.4C427.2 513.2 428.3 475.9 412.2 438.3C406.1 424.2 399.9 409.9 393.9 396C391.5 390.6 389.2 385.2 386.8 379.8C390.2 379.8 393.6 379.7 396.9 379.7C412.3 379.5 428.2 379.4 443.5 380.9C484.1 384.8 513 406.1 529.3 444C541.4 472 540.7 503.5 527.5 530.5Z" fill="black"/>
<path d="M704.2 223.8C685.7 180.2 659.3 141 625.7 107.3C592 73.7 552.8 47.3 509.2 28.8C464 9.7 416 0 366.5 0C317 0 269 9.7 223.8 28.8C180.2 47.3 141 73.7 107.3 107.3C73.7 141 47.3 180.2 28.8 223.8C9.7 269 0 317 0 366.5C0 416 9.7 464 28.8 509.2C47.3 552.8 73.7 592 107.3 625.7C141 659.4 180.1 685.8 223.8 704.2C269 723.3 317 733 366.5 733C416 733 464 723.3 509.2 704.2C552.8 685.7 592 659.3 625.7 625.7C659.4 592 685.8 552.9 704.2 509.2C723.3 464 733 416 733 366.5C733 317 723.3 269 704.2 223.8ZM604.4 604.4C540.9 668 456.4 703 366.5 703C276.6 703 192.1 668 128.6 604.4C65 540.9 30 456.4 30 366.5C30 276.6 65 192.1 128.6 128.6C192.1 65 276.6 30 366.5 30C456.4 30 540.9 65 604.4 128.6C667.9 192.2 703 276.6 703 366.5C703 456.4 668 540.9 604.4 604.4Z" fill="black"/>
</svg>
