<svg width="24" height="21" viewBox="0 0 24 21" fill="none" xmlns="http://www.w3.org/2000/svg">
<path fill-rule="evenodd" clip-rule="evenodd" d="M11.5354 15.9421C11.1419 17.8768 10.2654 20.0045 8.31305 20.0045C8.31305 20.0045 6.24591 20.0361 6.3611 16.9379C6.41954 15.3854 7.58113 14.8043 8.71161 14.2388C9.80961 13.6895 10.8783 13.155 10.8783 11.7592C10.8783 10.4819 8.45314 12.1228 6.3611 14.3833C3.88302 17.058 1.7941 17.8262 0.645339 15.5689C-0.472276 13.3716 -0.0955976 10.7033 1.44542 9.73585C2.90202 8.82051 3.88589 9.88887 4.8118 10.8944C4.91888 11.0106 5.02521 11.1261 5.13139 11.2376C6.56033 12.7424 10.2525 10.2575 10.2681 9.78639C10.2681 9.78639 0.564391 9.67573 2.84012 5.07887C3.53435 3.6783 4.87923 2.2809 5.97195 5.15156C6.76892 7.24452 8.25078 8.47438 9.79802 8.30366C10.4362 8.23091 10.9188 7.94325 10.9188 7.23189C10.9188 5.3752 9.71719 5.1327 8.52193 4.89149C7.08552 4.60158 5.65822 4.31349 6.3362 1.2281C6.88945 -1.28325 10.3014 0.268506 11.4682 4.05684C11.8622 2.12355 12.739 1.2647e-05 14.6895 1.2647e-05C14.6895 1.2647e-05 16.7566 -0.0316036 16.6414 3.06672C16.583 4.61921 15.4214 5.20027 14.2909 5.76582C13.1929 6.31508 12.1242 6.84962 12.1242 8.24537C12.1242 9.52266 14.5494 7.88179 16.6414 5.62129C19.1195 2.94661 21.2084 2.17836 22.3572 4.43568C23.4748 6.63295 23.0981 9.30134 21.5571 10.2688C20.1005 11.184 19.1167 10.1157 18.1908 9.1103C18.0836 8.99397 17.9773 8.87849 17.8711 8.76704C16.4422 7.2621 12.75 9.74708 12.7344 10.2182C12.7344 10.2182 22.4381 10.3288 20.1624 14.9257C19.4682 16.3263 18.1233 17.7237 17.0305 14.853C16.2336 12.7601 14.7517 11.5302 13.2045 11.7009C12.5663 11.7736 12.0837 12.0614 12.0837 12.7727C12.0837 14.6294 13.2853 14.8719 14.4806 15.1131C15.917 15.403 17.3443 15.6911 16.6663 18.7765C16.1128 21.2891 12.6998 19.7346 11.5354 15.9421Z" fill="#072F19"/>
</svg>
